<?xml version="1.0" encoding="utf-8"?>
<!-- Generator: Adobe Illustrator 24.2.1, SVG Export Plug-In . SVG Version: 6.00 Build 0)  -->
<svg version="1.1" id="Layer_1" xmlns="http://www.w3.org/2000/svg" xmlns:xlink="http://www.w3.org/1999/xlink" x="0px" y="0px"
	 viewBox="0 0 16 16" style="enable-background:new 0 0 16 16;" xml:space="preserve">
<style type="text/css">
	.st0{fill:#BDC1C6;}
</style>
<path class="st0" d="M2.5,3C2.2,3,2,3.2,2,3.5S2.2,4,2.5,4h11C13.8,4,14,3.8,14,3.5S13.8,3,13.5,3H2.5z M2.5,6C2.2,6,2,6.2,2,6.5
	S2.2,7,2.5,7h6C8.8,7,9,6.8,9,6.5S8.8,6,8.5,6H2.5z M2.5,9C2.2,9,2,9.2,2,9.5S2.2,10,2.5,10h6C8.8,10,9,9.8,9,9.5S8.8,9,8.5,9H2.5z
	 M2.5,12C2.2,12,2,12.2,2,12.5S2.2,13,2.5,13h11c0.3,0,0.5-0.2,0.5-0.5S13.8,12,13.5,12H2.5z M12.6,6.6c-0.1-0.1-0.3-0.2-0.4-0.3
	L12.4,6c0.1,0.1,0.3,0.2,0.5,0.3c0.2,0.1,0.4,0.3,0.5,0.4c0.2,0.2,0.3,0.4,0.4,0.6C13.9,7.5,14,7.7,14,8c0,0.4-0.1,0.6-0.2,0.9
	c-0.1,0.2-0.4,0.3-0.7,0.3c-0.2,0-0.4-0.1-0.5-0.2c-0.1-0.1-0.2-0.3-0.2-0.5s0.1-0.4,0.2-0.5c0.1-0.1,0.3-0.2,0.6-0.2h0.3
	c0-0.2-0.1-0.3-0.1-0.5C13.1,7.2,13.1,7,13,6.9S12.7,6.7,12.6,6.6z M10.4,6.6c-0.1-0.1-0.3-0.2-0.4-0.3L10.2,6
	c0.1,0.1,0.3,0.2,0.5,0.3c0.2,0.1,0.4,0.3,0.5,0.4c0.2,0.2,0.3,0.4,0.4,0.6c0.1,0.2,0.2,0.4,0.2,0.7c0,0.4-0.1,0.6-0.2,0.9
	c-0.1,0.2-0.4,0.3-0.7,0.3c-0.2,0-0.4-0.1-0.5-0.2c-0.1-0.1-0.2-0.3-0.2-0.5s0.1-0.4,0.2-0.5c0.1-0.1,0.3-0.2,0.6-0.2h0.3
	c0-0.2-0.1-0.3-0.1-0.5C11,7.2,10.9,7,10.8,6.9C10.7,6.8,10.6,6.7,10.4,6.6L10.4,6.6z"/>
</svg>
