<?xml version="1.0" encoding="utf-8"?>
<!-- Generator: Adobe Illustrator 24.2.1, SVG Export Plug-In . SVG Version: 6.00 Build 0)  -->
<svg version="1.1" id="Layer_1" xmlns="http://www.w3.org/2000/svg" xmlns:xlink="http://www.w3.org/1999/xlink" x="0px" y="0px"
	 viewBox="0 0 16 16" style="enable-background:new 0 0 16 16;" xml:space="preserve">
<style type="text/css">
	.st0{fill:#BDC1C6;}
</style>
<path class="st0" d="M8,1C4.1,1,1,4.1,1,8s3.1,7,7,7s7-3.1,7-7S11.9,1,8,1z M0,8c0-4.4,3.6-8,8-8s8,3.6,8,8s-3.6,8-8,8S0,12.4,0,8z"
	/>
<path class="st0" d="M9.7,5.5C9.2,5.2,8.6,5,8,5S6.8,5.2,6.3,5.5L4.7,3c1-0.6,2.1-1,3.3-1s2.4,0.4,3.3,1L9.7,5.5z M11,7.8
	c0.1,0.9-0.3,1.7-0.9,2.3c-0.2,0.2-0.5,0.4-0.8,0.6l1.3,2.7c0.6-0.3,1.1-0.7,1.5-1.1c1.2-1.2,1.9-2.9,1.8-4.6C14,7.6,11,7.8,11,7.8z
	 M5.3,13.4l1.3-2.7C5.6,10.1,4.9,9,5,7.8L2,7.6C1.9,10,3.2,12.3,5.3,13.4L5.3,13.4z M10,8c0,1.1-0.9,2-2,2S6,9.1,6,8s0.9-2,2-2
	S10,6.9,10,8z"/>
</svg>
