<?xml version="1.0" encoding="utf-8"?>
<!-- Generator: Adobe Illustrator 24.2.1, SVG Export Plug-In . SVG Version: 6.00 Build 0)  -->
<svg version="1.1" id="Layer_1" xmlns="http://www.w3.org/2000/svg" xmlns:xlink="http://www.w3.org/1999/xlink" x="0px" y="0px"
	 viewBox="0 0 16 16" style="enable-background:new 0 0 16 16;" xml:space="preserve">
<style type="text/css">
	.st0{fill:#BDC1C6;}
</style>
<path class="st0" d="M13,2.5C13,1.7,13.7,1,14.5,1S16,1.7,16,2.5v11c0,0.8-0.7,1.5-1.5,1.5S13,14.3,13,13.5v-0.2
	c-2.2-1.2-4.5-1.8-6.9-2.1l0.4,2.7c0.1,0.5-0.3,1.1-0.8,1.2c-0.1,0-0.1,0-0.2,0H5c-0.4,0-0.8-0.2-0.9-0.6L2.2,11c-0.1,0-0.1,0-0.2,0
	c-1.1,0-2-0.9-2-2V7c0-1.1,0.9-2,2-2c0.8,0,1.7,0,2.5-0.1c3-0.2,6.1-0.8,8.5-2.2V2.5z M14,2.5v11c0,0.3,0.2,0.5,0.5,0.5
	s0.5-0.2,0.5-0.5v-11C15,2.2,14.8,2,14.5,2S14,2.2,14,2.5z M13,3.8c-2.3,1.2-5.2,1.8-8,2V10c0.2,0,0.4,0,0.5,0
	c2.6,0.2,5.1,0.7,7.5,2V3.8z M4,10.1V5.9C3.3,6,2.7,6,2,6C1.5,6,1,6.4,1,7v2c0,0.6,0.4,1,1,1C2.7,10,3.3,10,4,10.1z M3.3,11l1.6,3
	l0,0h0.5l0,0L5,11C4.5,11.1,3.9,11.1,3.3,11L3.3,11z"/>
</svg>
