<?xml version="1.0" encoding="utf-8"?>
<!-- Generator: Adobe Illustrator 24.2.1, SVG Export Plug-In . SVG Version: 6.00 Build 0)  -->
<svg version="1.1" id="Layer_1" xmlns="http://www.w3.org/2000/svg" xmlns:xlink="http://www.w3.org/1999/xlink" x="0px" y="0px"
	 viewBox="0 0 16 16" style="enable-background:new 0 0 16 16;" xml:space="preserve">
<style type="text/css">
	.st0{fill:#BDC1C6;}
</style>
<path class="st0" d="M7.9,2C8,2,8,2,7.9,2C8,2,8,2,8.1,2c0,0,0,0,0.1,0.1L15,13.7c0,0.1,0,0.1,0,0.2c0,0,0,0-0.1,0.1c0,0,0,0-0.1,0
	H1.1c0,0,0,0-0.1,0c0,0,0,0-0.1-0.1c0-0.1,0-0.1,0-0.2L7.9,2L7.9,2z M9,1.6C8.7,1,8,0.8,7.4,1.1C7.3,1.2,7.1,1.4,7,1.6L0.2,13.2
	C-0.3,14,0.3,15,1.1,15h13.7c0.9,0,1.4-1,1-1.8L9,1.6z"/>
<path class="st0" d="M7,12c0-0.6,0.4-1,1-1s1,0.4,1,1s-0.4,1-1,1S7,12.6,7,12z M7.1,6C7,5.5,7.4,5.1,7.9,5s0.9,0.3,1,0.8
	c0,0.1,0,0.1,0,0.2L8.5,9.5C8.5,9.8,8.3,10,8,10S7.5,9.8,7.5,9.5L7.1,6z"/>
</svg>
