<?xml version="1.0" encoding="utf-8"?>
<!-- Generator: Adobe Illustrator 24.0.1, SVG Export Plug-In . SVG Version: 6.00 Build 0)  -->
<svg version="1.1" id="Layer_1" xmlns="http://www.w3.org/2000/svg" xmlns:xlink="http://www.w3.org/1999/xlink" x="0px" y="0px"
	 viewBox="0 0 1515 250" style="enable-background:new 0 0 1515 250;" xml:space="preserve">
<style type="text/css">
	.st0{fill:#E34234;}
	.st1{fill:#FFFFFF;}
</style>
<g>
	<polygon class="st0" points="238.4,0.4 203.3,0.4 196.3,0.4 152.7,0.4 37.1,0.4 -0.3,0.4 -0.3,36 -0.3,122.9 37.1,96.3 37.1,36 
		152.7,36 -0.3,145.1 -0.3,165 118.9,250 238.4,164.8 238.4,56.5 129.9,133.9 212.8,133.9 118.3,201.3 56.2,156.9 238.4,26.9 	"/>
	<g>
		<path class="st1" d="M329.7,245.7V204L443.8,49.3H329.7V4h181.5v41.3L397.1,200.4h116.7v45.3H329.7z"/>
		<path class="st1" d="M954.6,125c0-72.8,53.3-125,126.4-125c72.8,0,126.1,52.2,126.1,125c0,72.8-53.3,125-126.1,125
			C1007.9,250,954.6,197.8,954.6,125z M1154.3,125c0-45.3-28.6-79.3-73.2-79.3c-44.9,0-73.5,34.1-73.5,79.3
			c0,44.9,28.6,79.3,73.5,79.3C1125.7,204.3,1154.3,169.9,1154.3,125z"/>
		<path class="st0" d="M1267.2,125c0-76.4,58-125,129-125c50,0,81.5,25.4,99.6,54l-42.4,23.2c-11.2-17-31.9-31.5-57.2-31.5
			c-44.2,0-76.1,33.7-76.1,79.3s31.9,79.3,76.1,79.3c34.4,0,55.1-22.1,62.7-47.5h-75.4v-45.3h131.9c0,86.2-46.7,138.4-123.9,138.4
			C1325.2,250,1267.2,201.1,1267.2,125z"/>
		<polygon class="st1" points="540.1,100 540.1,245.7 711.1,245.7 711.1,200.4 591.6,200.4 591.6,145.3 708.6,145.3 708.6,100 
			633.4,100 591.6,100 		"/>
		<polygon class="st0" points="633.4,49.3 711.1,49.3 711.1,4 540.1,4 540.1,49.3 591.6,49.3 		"/>
		<path class="st1" d="M884.7,153.6c26.1-6.2,53.3-29.3,53.3-71.7C937.9,37,906.8,4,856.4,4h-113v241.7h51.4V213v-53.2v-45.3V91.6
			V49.3h54.3c20.3,0,35.9,12.3,35.9,32.2c0,20.7-15.6,33-35.9,33h-41.7l25,45.3l47.5,85.9h59.4L884.7,153.6z"/>
	</g>
</g>
</svg>
