0
SECTION
2
HEADER
9
$INSUNITS
70
4
9
$ACADVER
1
AC1014
9
$HANDSEED
5
FFFF
0
ENDSEC
0
SECTION
2
TABLES
0
TABLE
2
VPORT
5
8
100
AcDbSymbolTable
0
ENDTAB
0
TABLE
2
LTYPE
5
5
100
AcDbSymbolTable
0
LTYPE
5
14
100
AcDbSymbolTableRecord
100
AcDbLinetypeTableRecord
2
BYBLOCK
70
0
0
LTYPE
5
15
100
AcDbSymbolTableRecord
100
AcDbLinetypeTableRecord
2
BYLAYER
70
0
0
ENDTAB
0
TABLE
2
LAYER
5
2
100
AcDbSymbolTable
70
2
0
LAYER
5
50
100
AcDbSymbolTableRecord
100
AcDbLayerTableRecord
2
0
70
0
6
CONTINUOUS
0
ENDTAB
0
TABLE
2
STYLE
5
3
100
AcDbSymbolTable
70
1
0
STYLE
5
11
100
AcDbSymbolTableRecord
100
AcDbTextStyleTableRecord
2
STANDARD
70
0
0
ENDTAB
0
TABLE
2
VIEW
5
6
100
AcDbSymbolTable
70
0
0
ENDTAB
0
TABLE
2
UCS
5
7
100
AcDbSymbolTable
70
0
0
ENDTAB
0
TABLE
2
APPID
5
9
100
AcDbSymbolTable
70
2
0
APPID
5
12
100
AcDbSymbolTableRecord
100
AcDbRegAppTableRecord
2
ACAD
70
0
0
ENDTAB
0
TABLE
2
DIMSTYLE
5
A
100
AcDbSymbolTable
70
1
0
ENDTAB
0
TABLE
2
BLOCK_RECORD
5
1
100
AcDbSymbolTable
70
1
0
BLOCK_RECORD
5
1F
100
AcDbSymbolTableRecord
100
AcDbBlockTableRecord
2
*MODEL_SPACE
0
BLOCK_RECORD
5
1B
100
AcDbSymbolTableRecord
100
AcDbBlockTableRecord
2
*PAPER_SPACE
0
ENDTAB
0
ENDSEC
0
SECTION
2
BLOCKS
0
BLOCK
5
20
100
AcDbEntity
100
AcDbBlockBegin
2
*MODEL_SPACE
0
ENDBLK
5
21
100
AcDbEntity
100
AcDbBlockEnd
0
BLOCK
5
1C
100
AcDbEntity
100
AcDbBlockBegin
2
*PAPER_SPACE
0
ENDBLK
5
1D
100
AcDbEntity
100
AcDbBlockEnd
0
ENDSEC
0
SECTION
2
ENTITIES
0
LWPOLYLINE
5
100
100
AcDbEntity
8
0
100
AcDbPolyline
90
46
70
1
43
0.0
10
-228
20
-263
10
-228
20
-257.50000000000006
42
0.41421356237309503
10
-229
20
-256.50000000000011
10
-254.50000000000003
20
-256.50000000000011
42
-0.41421356237309503
10
-255.5
20
-255.50000000000011
10
-255.50000000000006
20
191.49999999999991
42
-0.4142135623730846
10
-254.50000000000006
20
192.49999999999994
10
-249.0000000000004
20
192.5
42
0.043660942908502989
10
-245.35338826899482
20
192.81903718674357
10
-200.35449116344213
20
200.75355684857664
42
0.31529878887898349
10
-197.1098528620611
20
203.9981951499577
10
-188.31903718674391
20
253.85338826899437
42
0.043660942908503635
10
-188.00000000000034
20
257.49999999999994
10
-188.00000000000028
20
262.99999999999994
42
-0.41421356237309503
10
-187.00000000000031
20
263.99999999999989
10
187.00000000000031
20
264.00000000000011
42
-0.41421356237309503
10
188.00000000000034
20
263.00000000000006
10
188.00000000000026
20
257.49999999999949
42
0.043660942908509554
10
188.31903718674383
20
253.85338826899439
10
197.10985286206108
20
203.9981951499577
42
0.31529878887898832
10
200.35449116344222
20
200.75355684857666
10
245.35338826899476
20
192.8190371867436
42
0.043660942908503794
10
249.0000000000004
20
192.5
10
254.50000000000006
20
192.5
42
-0.4142135623730222
10
255.5
20
191.50000000000003
10
255.50000000000006
20
-255.50000000000009
42
-0.41421356237310542
10
254.50000000000006
20
-256.50000000000011
10
229
20
-256.5
42
0.41421356237309503
10
228
20
-257.50000000000006
10
228
20
-262.99999999999994
42
-0.41421356237309503
10
227.00000000000003
20
-263.99999999999989
10
44.000000000000057
20
-263.99999999999994
42
-0.41421356237309681
10
41.000000000000043
20
-260.99999999999994
10
41.000000000000043
20
-257.50000000000006
42
0.076506905504387504
10
40.028055965712781
20
-251.18517821041021
10
26.66317045863498
20
-208.79717680198297
42
0.32733339675442996
10
22.84830265564208
20
-206.00000000000011
10
-22.848302655642069
20
-206.00000000000009
42
0.32733339675442202
10
-26.663170458634951
20
-208.79717680198291
10
-34.64156504364658
20
-234.1014115990086
42
-0.32733339675444267
10
-36.548998945143069
20
-235.50000000000006
10
-67.500000000000085
20
-235.50000000000009
42
0.41421356237309592
10
-70.500000000000099
20
-238.50000000000009
10
-70.500000000000099
20
-261
42
-0.41421356237309503
10
-73.500000000000099
20
-264
10
-227.00000000000003
20
-263.99999999999994
42
-0.41421356237309503
0
ENDSEC
0
SECTION
2
OBJECTS
0
DICTIONARY
5
C
100
AcDbDictionary
3
ACAD_GROUP
350
D
3
ACAD_MLINESTYLE
350
17
0
DICTIONARY
5
D
100
AcDbDictionary
0
DICTIONARY
5
1A
330
C
100
AcDbDictionary
0
DICTIONARY
5
17
100
AcDbDictionary
0
ENDSEC
0
EOF
