0
SECTION
2
HEADER
9
$INSUNITS
70
4
9
$ACADVER
1
AC1014
9
$HANDSEED
5
FFFF
0
ENDSEC
0
SECTION
2
TABLES
0
TABLE
2
VPORT
5
8
100
AcDbSymbolTable
0
ENDTAB
0
TABLE
2
LTYPE
5
5
100
AcDbSymbolTable
0
LTYPE
5
14
100
AcDbSymbolTableRecord
100
AcDbLinetypeTableRecord
2
BYBLOCK
70
0
0
LTYPE
5
15
100
AcDbSymbolTableRecord
100
AcDbLinetypeTableRecord
2
BYLAYER
70
0
0
ENDTAB
0
TABLE
2
LAYER
5
2
100
AcDbSymbolTable
70
2
0
LAYER
5
50
100
AcDbSymbolTableRecord
100
AcDbLayerTableRecord
2
0
70
0
6
CONTINUOUS
0
ENDTAB
0
TABLE
2
STYLE
5
3
100
AcDbSymbolTable
70
1
0
STYLE
5
11
100
AcDbSymbolTableRecord
100
AcDbTextStyleTableRecord
2
STANDARD
70
0
0
ENDTAB
0
TABLE
2
VIEW
5
6
100
AcDbSymbolTable
70
0
0
ENDTAB
0
TABLE
2
UCS
5
7
100
AcDbSymbolTable
70
0
0
ENDTAB
0
TABLE
2
APPID
5
9
100
AcDbSymbolTable
70
2
0
APPID
5
12
100
AcDbSymbolTableRecord
100
AcDbRegAppTableRecord
2
ACAD
70
0
0
ENDTAB
0
TABLE
2
DIMSTYLE
5
A
100
AcDbSymbolTable
70
1
0
ENDTAB
0
TABLE
2
BLOCK_RECORD
5
1
100
AcDbSymbolTable
70
1
0
BLOCK_RECORD
5
1F
100
AcDbSymbolTableRecord
100
AcDbBlockTableRecord
2
*MODEL_SPACE
0
BLOCK_RECORD
5
1B
100
AcDbSymbolTableRecord
100
AcDbBlockTableRecord
2
*PAPER_SPACE
0
ENDTAB
0
ENDSEC
0
SECTION
2
BLOCKS
0
BLOCK
5
20
100
AcDbEntity
100
AcDbBlockBegin
2
*MODEL_SPACE
0
ENDBLK
5
21
100
AcDbEntity
100
AcDbBlockEnd
0
BLOCK
5
1C
100
AcDbEntity
100
AcDbBlockBegin
2
*PAPER_SPACE
0
ENDBLK
5
1D
100
AcDbEntity
100
AcDbBlockEnd
0
ENDSEC
0
SECTION
2
ENTITIES
0
CIRCLE
5
100
100
AcDbEntity
8
0
100
AcDbCircle
10
-256.49999999999977
20
-20.780253405868763
30
0
40
1.7499999999999749
210
-0
220
0
230
1
0
CIRCLE
5
101
100
AcDbEntity
8
0
100
AcDbCircle
10
-256.49999999999977
20
222.64999999999992
30
0
40
1.7499999999999749
210
-0
220
0
230
1
0
CIRCLE
5
102
100
AcDbEntity
8
0
100
AcDbCircle
10
256.49999999999977
20
20.780253405868976
30
0
40
1.7499999999999749
210
-0
220
0
230
1
0
CIRCLE
5
103
100
AcDbEntity
8
0
100
AcDbCircle
10
-256.49999999999977
20
-222.64999999999992
30
0
40
1.7499999999999749
210
-0
220
0
230
1
0
CIRCLE
5
104
100
AcDbEntity
8
0
100
AcDbCircle
10
20.780253405869189
20
-264.99999999999983
30
0
40
1.7500000000000029
210
-0
220
0
230
1
0
CIRCLE
5
105
100
AcDbEntity
8
0
100
AcDbCircle
10
-214.14999999999964
20
-264.99999999999983
30
0
40
1.7500000000000195
210
-0
220
0
230
1
0
CIRCLE
5
106
100
AcDbEntity
8
0
100
AcDbCircle
10
214.14999999999964
20
264.99999999999994
30
0
40
1.7500000000000195
210
-0
220
0
230
1
0
CIRCLE
5
107
100
AcDbEntity
8
0
100
AcDbCircle
10
214.14999999999964
20
-264.99999999999994
30
0
40
1.7500000000000195
210
-0
220
0
230
1
0
CIRCLE
5
108
100
AcDbEntity
8
0
100
AcDbCircle
10
256.49999999999977
20
222.6500000000002
30
0
40
1.7499999999999749
210
-0
220
0
230
1
0
CIRCLE
5
109
100
AcDbEntity
8
0
100
AcDbCircle
10
20.780253405869189
20
264.99999999999994
30
0
40
1.7500000000000029
210
-0
220
0
230
1
0
CIRCLE
5
110
100
AcDbEntity
8
0
100
AcDbCircle
10
256.49999999999977
20
-222.65000000000001
30
0
40
1.7499999999999749
210
-0
220
0
230
1
0
CIRCLE
5
111
100
AcDbEntity
8
0
100
AcDbCircle
10
-20.780253405869189
20
-264.99999999999983
30
0
40
1.7500000000000029
210
-0
220
0
230
1
0
CIRCLE
5
112
100
AcDbEntity
8
0
100
AcDbCircle
10
-214.14999999999964
20
264.99999999999994
30
0
40
1.7500000000000195
210
-0
220
0
230
1
0
CIRCLE
5
113
100
AcDbEntity
8
0
100
AcDbCircle
10
-256.49999999999977
20
20.780253405868763
30
0
40
1.7499999999999749
210
-0
220
0
230
1
0
CIRCLE
5
114
100
AcDbEntity
8
0
100
AcDbCircle
10
-20.780253405869189
20
264.99999999999994
30
0
40
1.7500000000000029
210
-0
220
0
230
1
0
CIRCLE
5
115
100
AcDbEntity
8
0
100
AcDbCircle
10
256.49999999999977
20
-20.780253405868834
30
0
40
1.7499999999999749
210
-0
220
0
230
1
0
LWPOLYLINE
5
116
100
AcDbEntity
8
0
100
AcDbPolyline
90
40
70
1
43
0.0
10
218.24999999999974
20
258.74999999999994
42
0.41421356237309503
10
220.24999999999977
20
256.74999999999989
10
246.24999999999972
20
256.74999999999989
42
-0.41421356237313667
10
248.25000000000003
20
254.74999999999989
10
248.25000000000043
20
228.74999999999977
42
0.41421356237309503
10
250.24999999999977
20
226.74999999999977
10
263.25000000000045
20
226.74999999999989
42
-0.41421356237309503
10
265.25000000000045
20
224.74999999999991
10
265.25000000000045
20
-224.74999999999983
42
-0.41421356237309503
10
263.25000000000045
20
-226.74999999999986
10
250.24999999999977
20
-226.7499999999998
42
0.41421356237309503
10
248.24999999999974
20
-228.74999999999983
10
248.25000000000003
20
-254.74999999999994
42
-0.41421356237309503
10
246.25
20
-256.75
10
220.25000000000017
20
-256.74999999999994
42
0.41421356237315227
10
218.24999999999974
20
-258.74999999999994
10
218.25000000000003
20
-271.74999999999994
42
-0.41421356237309503
10
216.25
20
-273.74999999999994
10
-216.25
20
-273.74999999999994
42
-0.41421356237309503
10
-218.25000000000003
20
-271.74999999999994
10
-218.25000000000045
20
-258.74999999999994
42
0.41421356237309503
10
-220.24999999999977
20
-256.74999999999994
10
-246.25
20
-256.75
42
-0.41421356237309503
10
-248.25000000000003
20
-254.74999999999994
10
-248.25000000000045
20
-228.74999999999983
42
0.41421356237309503
10
-250.24999999999977
20
-226.7499999999998
10
-263.25000000000045
20
-226.74999999999972
42
-0.41421356237310025
10
-265.25000000000045
20
-224.74999999999966
10
-265.25000000000045
20
224.74999999999989
42
-0.41421356237309503
10
-263.25000000000045
20
226.74999999999989
10
-250.24999999999977
20
226.74999999999977
42
0.41421356237309503
10
-248.24999999999974
20
228.74999999999977
10
-248.25000000000003
20
254.74999999999989
42
-0.41421356237309503
10
-246.25
20
256.74999999999989
10
-220.24999999999977
20
256.74999999999989
42
0.41421356237309503
10
-218.24999999999974
20
258.74999999999994
10
-218.25000000000003
20
271.74999999999989
42
-0.41421356237309503
10
-216.25
20
273.74999999999994
10
216.25
20
273.74999999999994
42
-0.41421356237309503
10
218.25000000000003
20
271.74999999999989
0
ENDSEC
0
SECTION
2
OBJECTS
0
DICTIONARY
5
C
100
AcDbDictionary
3
ACAD_GROUP
350
D
3
ACAD_MLINESTYLE
350
17
0
DICTIONARY
5
D
100
AcDbDictionary
0
DICTIONARY
5
1A
330
C
100
AcDbDictionary
0
DICTIONARY
5
17
100
AcDbDictionary
0
ENDSEC
0
EOF
