0
SECTION
2
HEADER
9
$INSUNITS
70
4
9
$ACADVER
1
AC1014
9
$HANDSEED
5
FFFF
0
ENDSEC
0
SECTION
2
TABLES
0
TABLE
2
VPORT
5
8
100
AcDbSymbolTable
0
ENDTAB
0
TABLE
2
LTYPE
5
5
100
AcDbSymbolTable
0
LTYPE
5
14
100
AcDbSymbolTableRecord
100
AcDbLinetypeTableRecord
2
BYBLOCK
70
0
0
LTYPE
5
15
100
AcDbSymbolTableRecord
100
AcDbLinetypeTableRecord
2
BYLAYER
70
0
0
ENDTAB
0
TABLE
2
LAYER
5
2
100
AcDbSymbolTable
70
2
0
LAYER
5
50
100
AcDbSymbolTableRecord
100
AcDbLayerTableRecord
2
0
70
0
6
CONTINUOUS
0
ENDTAB
0
TABLE
2
STYLE
5
3
100
AcDbSymbolTable
70
1
0
STYLE
5
11
100
AcDbSymbolTableRecord
100
AcDbTextStyleTableRecord
2
STANDARD
70
0
0
ENDTAB
0
TABLE
2
VIEW
5
6
100
AcDbSymbolTable
70
0
0
ENDTAB
0
TABLE
2
UCS
5
7
100
AcDbSymbolTable
70
0
0
ENDTAB
0
TABLE
2
APPID
5
9
100
AcDbSymbolTable
70
2
0
APPID
5
12
100
AcDbSymbolTableRecord
100
AcDbRegAppTableRecord
2
ACAD
70
0
0
ENDTAB
0
TABLE
2
DIMSTYLE
5
A
100
AcDbSymbolTable
70
1
0
ENDTAB
0
TABLE
2
BLOCK_RECORD
5
1
100
AcDbSymbolTable
70
1
0
BLOCK_RECORD
5
1F
100
AcDbSymbolTableRecord
100
AcDbBlockTableRecord
2
*MODEL_SPACE
0
BLOCK_RECORD
5
1B
100
AcDbSymbolTableRecord
100
AcDbBlockTableRecord
2
*PAPER_SPACE
0
ENDTAB
0
ENDSEC
0
SECTION
2
BLOCKS
0
BLOCK
5
20
100
AcDbEntity
100
AcDbBlockBegin
2
*MODEL_SPACE
0
ENDBLK
5
21
100
AcDbEntity
100
AcDbBlockEnd
0
BLOCK
5
1C
100
AcDbEntity
100
AcDbBlockBegin
2
*PAPER_SPACE
0
ENDBLK
5
1D
100
AcDbEntity
100
AcDbBlockEnd
0
ENDSEC
0
SECTION
2
ENTITIES
0
LWPOLYLINE
5
100
100
AcDbEntity
8
0
100
AcDbPolyline
90
4
70
1
43
0.0
10
-190.75000000000003
20
148.65000000000003
10
-190.75000000000003
20
150.65000000000001
42
0.99999999999999989
10
-194.25000000000006
20
150.65000000000001
10
-194.25000000000006
20
148.65000000000003
42
0.99999999999999989
0
LWPOLYLINE
5
101
100
AcDbEntity
8
0
100
AcDbPolyline
90
4
70
1
43
0.0
10
194.25
20
-150.65000000000001
10
194.25
20
-148.65000000000003
42
0.99999999999999989
10
190.75
20
-148.65000000000003
10
190.75
20
-150.65000000000001
42
0.99999999999999989
0
LWPOLYLINE
5
102
100
AcDbEntity
8
0
100
AcDbPolyline
90
4
70
1
43
0.0
10
190.75
20
150.65000000000001
10
190.75
20
148.65000000000003
42
0.99999999999999989
10
194.25
20
148.65000000000003
10
194.25
20
150.65000000000001
42
0.99999999999999989
0
LWPOLYLINE
5
103
100
AcDbEntity
8
0
100
AcDbPolyline
90
4
70
1
43
0.0
10
148.65000000000003
20
-194.25
10
150.65000000000001
20
-194.25
42
0.99999999999999989
10
150.65000000000001
20
-190.75
10
148.65000000000003
20
-190.74999999999991
42
0.99999999999999989
0
LWPOLYLINE
5
104
100
AcDbEntity
8
0
100
AcDbPolyline
90
4
70
1
43
0.0
10
-190.75
20
19.780253405868997
10
-190.75
20
21.780253405868994
42
0.99999999999999989
10
-194.25
20
21.780253405868997
10
-194.25
20
19.780253405868997
42
0.99999999999999989
0
LWPOLYLINE
5
105
100
AcDbEntity
8
0
100
AcDbPolyline
90
4
70
1
43
0.0
10
19.780253405868898
20
190.75
10
21.780253405868901
20
190.75
42
0.99999999999999989
10
21.780253405868901
20
194.25
10
19.780253405868898
20
194.25
42
0.99999999999999989
0
LWPOLYLINE
5
106
100
AcDbEntity
8
0
100
AcDbPolyline
90
4
70
1
43
0.0
10
-190.75
20
-150.65000000000001
10
-190.75
20
-148.65000000000001
42
0.99999999999999989
10
-194.25
20
-148.65000000000001
10
-194.25
20
-150.65000000000001
42
0.99999999999999989
0
LWPOLYLINE
5
107
100
AcDbEntity
8
0
100
AcDbPolyline
90
4
70
1
43
0.0
10
-150.65000000000001
20
190.75000000000003
10
-148.65000000000003
20
190.75
42
0.99999999999999989
10
-148.65000000000006
20
194.24999999999994
10
-150.65000000000001
20
194.25000000000006
42
0.99999999999999989
0
LWPOLYLINE
5
108
100
AcDbEntity
8
0
100
AcDbPolyline
90
4
70
1
43
0.0
10
190.75
20
-19.780253405868798
10
190.75
20
-21.780253405868798
42
0.99999999999999989
10
194.25
20
-21.780253405868798
10
194.25
20
-19.780253405868798
42
0.99999999999999989
0
LWPOLYLINE
5
109
100
AcDbEntity
8
0
100
AcDbPolyline
90
4
70
1
43
0.0
10
-150.65000000000001
20
-194.24999999999997
10
-148.65000000000003
20
-194.24999999999997
42
0.99999999999999989
10
-148.65000000000003
20
-190.74999999999994
10
-150.65000000000001
20
-190.74999999999994
42
0.99999999999999989
0
LWPOLYLINE
5
110
100
AcDbEntity
8
0
100
AcDbPolyline
90
4
70
1
43
0.0
10
190.75
20
21.780253405868795
10
190.75
20
19.780253405868798
42
0.99999999999999989
10
194.25
20
19.780253405868798
10
194.25
20
21.780253405868795
42
0.99999999999999989
0
LWPOLYLINE
5
111
100
AcDbEntity
8
0
100
AcDbPolyline
90
4
70
1
43
0.0
10
-21.780253405868901
20
-194.25
10
-19.780253405868898
20
-194.25
42
0.99999999999999989
10
-19.780253405868898
20
-190.75
10
-21.780253405868901
20
-190.75
42
0.99999999999999989
0
LWPOLYLINE
5
112
100
AcDbEntity
8
0
100
AcDbPolyline
90
4
70
1
43
0.0
10
-21.780253405868795
20
190.75
10
-19.780253405868798
20
190.75
42
0.99999999999999989
10
-19.780253405868798
20
194.25
10
-21.780253405868795
20
194.25
42
0.99999999999999989
0
LWPOLYLINE
5
113
100
AcDbEntity
8
0
100
AcDbPolyline
90
4
70
1
43
0.0
10
19.780253405868898
20
-194.25
10
21.780253405868901
20
-194.25
42
0.99999999999999989
10
21.780253405868901
20
-190.75
10
19.780253405868898
20
-190.75
42
0.99999999999999989
0
LWPOLYLINE
5
114
100
AcDbEntity
8
0
100
AcDbPolyline
90
4
70
1
43
0.0
10
-190.75
20
-21.780253405868795
10
-190.75
20
-19.780253405868798
42
0.99999999999999989
10
-194.25
20
-19.780253405868798
10
-194.25
20
-21.780253405868795
42
0.99999999999999989
0
LWPOLYLINE
5
115
100
AcDbEntity
8
0
100
AcDbPolyline
90
4
70
1
43
0.0
10
148.65000000000001
20
190.75
10
150.65000000000001
20
190.75
42
0.99999999999999989
10
150.65000000000001
20
194.25
10
148.65000000000001
20
194.25
42
0.99999999999999989
0
LWPOLYLINE
5
116
100
AcDbEntity
8
0
100
AcDbPolyline
90
48
70
1
43
0.0
10
-183.06201718323985
20
173.15873415881259
42
0.29643018884009908
10
-184.25
20
171.33099563973411
10
-184.25000000000006
20
156.25
42
-0.41421356237309764
10
-186.25
20
154.25
10
-199.25
20
154.25
42
0.41421356237309503
10
-201.25
20
152.25
10
-201.25
20
-152.25
42
0.41421356237309503
10
-199.25
20
-154.25
10
-186.24999999999801
20
-154.24999999999895
42
-0.41421356237309764
10
-184.24999999999699
20
-156.25
10
-184.24999999999699
20
-171.33099563973445
42
0.29643018884005784
10
-183.06201718323709
20
-173.15873415881282
42
-0.18575116596527808
10
-173.15873415881219
20
-183.06201718323973
42
0.29643018884011429
10
-171.33099563973366
20
-184.25
10
-156.25
20
-184.25000000000006
42
-0.41421356237309764
10
-154.25
20
-186.25
10
-154.25
20
-199.25
42
0.41421356237309503
10
-152.25
20
-201.25
10
152.25
20
-201.25
42
0.41421356237309503
10
154.25
20
-199.25
10
154.25
20
-186.25
42
-0.41421356237309764
10
156.25
20
-184.25
10
171.33099563973514
20
-184.25
42
0.29643018884009908
10
173.15873415881362
20
-183.06201718323985
42
-0.18575116596529129
10
183.0620171832399
20
-173.15873415881302
42
0.29643018884008826
10
184.25
20
-171.33099563973457
10
184.25000000000006
20
-156.25
42
-0.41421356237309764
10
186.25
20
-154.25
10
199.25
20
-154.25
42
0.41421356237309503
10
201.25
20
-152.25
10
201.25
20
152.25
42
0.41421356237309503
10
199.25
20
154.25
10
186.25
20
154.25
42
-0.41421356237309764
10
184.25
20
156.25
10
184.25
20
171.33099563973585
42
0.29643018884008387
10
183.06201718323993
20
173.1587341588143
42
-0.18575116596527291
10
173.1587341588143
20
183.06201718323993
42
0.29643018884008188
10
171.33099563973587
20
184.25
10
156.25
20
184.25000000000006
42
-0.41421356237309764
10
154.25
20
186.25
10
154.25
20
199.25
42
0.41421356237309503
10
152.25
20
201.25
10
-152.25
20
201.25
42
0.41421356237309503
10
-154.25
20
199.25
10
-154.25
20
186.25
42
-0.41421356237309764
10
-156.25
20
184.25
10
-171.33099563973411
20
184.25
42
0.29643018884010108
10
-173.15873415881259
20
183.06201718323985
42
-0.18575116596530483
0
ENDSEC
0
SECTION
2
OBJECTS
0
DICTIONARY
5
C
100
AcDbDictionary
3
ACAD_GROUP
350
D
3
ACAD_MLINESTYLE
350
17
0
DICTIONARY
5
D
100
AcDbDictionary
0
DICTIONARY
5
1A
330
C
100
AcDbDictionary
0
DICTIONARY
5
17
100
AcDbDictionary
0
ENDSEC
0
EOF
