0
SECTION
2
HEADER
9
$INSUNITS
70
4
9
$ACADVER
1
AC1014
9
$HANDSEED
5
FFFF
0
ENDSEC
0
SECTION
2
TABLES
0
TABLE
2
VPORT
5
8
100
AcDbSymbolTable
0
ENDTAB
0
TABLE
2
LTYPE
5
5
100
AcDbSymbolTable
0
LTYPE
5
14
100
AcDbSymbolTableRecord
100
AcDbLinetypeTableRecord
2
BYBLOCK
70
0
0
LTYPE
5
15
100
AcDbSymbolTableRecord
100
AcDbLinetypeTableRecord
2
BYLAYER
70
0
0
ENDTAB
0
TABLE
2
LAYER
5
2
100
AcDbSymbolTable
70
2
0
LAYER
5
50
100
AcDbSymbolTableRecord
100
AcDbLayerTableRecord
2
0
70
0
6
CONTINUOUS
0
ENDTAB
0
TABLE
2
STYLE
5
3
100
AcDbSymbolTable
70
1
0
STYLE
5
11
100
AcDbSymbolTableRecord
100
AcDbTextStyleTableRecord
2
STANDARD
70
0
0
ENDTAB
0
TABLE
2
VIEW
5
6
100
AcDbSymbolTable
70
0
0
ENDTAB
0
TABLE
2
UCS
5
7
100
AcDbSymbolTable
70
0
0
ENDTAB
0
TABLE
2
APPID
5
9
100
AcDbSymbolTable
70
2
0
APPID
5
12
100
AcDbSymbolTableRecord
100
AcDbRegAppTableRecord
2
ACAD
70
0
0
ENDTAB
0
TABLE
2
DIMSTYLE
5
A
100
AcDbSymbolTable
70
1
0
ENDTAB
0
TABLE
2
BLOCK_RECORD
5
1
100
AcDbSymbolTable
70
1
0
BLOCK_RECORD
5
1F
100
AcDbSymbolTableRecord
100
AcDbBlockTableRecord
2
*MODEL_SPACE
0
BLOCK_RECORD
5
1B
100
AcDbSymbolTableRecord
100
AcDbBlockTableRecord
2
*PAPER_SPACE
0
ENDTAB
0
ENDSEC
0
SECTION
2
BLOCKS
0
BLOCK
5
20
100
AcDbEntity
100
AcDbBlockBegin
2
*MODEL_SPACE
0
ENDBLK
5
21
100
AcDbEntity
100
AcDbBlockEnd
0
BLOCK
5
1C
100
AcDbEntity
100
AcDbBlockBegin
2
*PAPER_SPACE
0
ENDBLK
5
1D
100
AcDbEntity
100
AcDbBlockEnd
0
ENDSEC
0
SECTION
2
ENTITIES
0
LWPOLYLINE
5
100
100
AcDbEntity
8
0
100
AcDbPolyline
90
46
70
1
43
0.0
10
-73.500000000000099
20
-191.50000000000003
10
-162.99999999999997
20
-191.5
42
-0.41421356237310542
10
-164
20
-190.5
10
-164.00000000000003
20
-185.00000000000003
42
0.41421356237310542
10
-165
20
-184
10
-190.49999999999989
20
-184
42
-0.41421356237312623
10
-191.5
20
-183
10
-191.50000000000006
20
118.99999999999989
42
-0.41421356237310025
10
-190.5
20
119.99999999999993
10
-185.0000000000004
20
119.99999999999989
42
0.04366094290850988
10
-181.35338826899468
20
120.31903718674357
10
-136.35449116344216
20
128.25355684857661
42
0.31529878887897567
10
-133.10985286206113
20
131.49819514995761
10
-124.31903718674391
20
181.35338826899431
42
0.043660942908513724
10
-124.00000000000031
20
185
10
-124.00000000000031
20
190.49999999999997
42
-0.41421356237310542
10
-123.00000000000028
20
191.50000000000003
10
123.00000000000023
20
191.50000000000006
42
-0.41421356237308982
10
124.00000000000023
20
190.5
10
124.00000000000031
20
185.00000000000003
42
0.043660942908513078
10
124.31903718674394
20
181.35338826899439
10
133.10985286206113
20
131.49819514995761
42
0.31529878887898632
10
136.35449116344222
20
128.25355684857652
10
181.35338826899471
20
120.3190371867436
42
0.043660942908511476
10
185.00000000000043
20
119.99999999999994
10
190.49999999999989
20
119.99999999999991
42
-0.41421356237309503
10
191.49999999999991
20
118.9999999999999
10
191.50000000000003
20
-182.99999999999997
42
-0.41421356237307422
10
190.5
20
-183.99999999999991
10
165
20
-184.00000000000003
42
0.41421356237309503
10
164
20
-185
10
164.00000000000003
20
-190.49999999999997
42
-0.41421356237306384
10
163.00000000000006
20
-191.49999999999991
10
44.000000000000043
20
-191.50000000000003
42
-0.41421356237309503
10
41.000000000000043
20
-188.5
10
41.000000000000028
20
-185.00000000000003
42
0.076506905504386477
10
40.028055965712809
20
-178.68517821041021
10
26.663170458634966
20
-136.29717680198283
42
0.32733339675442757
10
22.84830265564208
20
-133.49999999999994
10
-22.848302655642069
20
-133.49999999999994
42
0.32733339675442669
10
-26.663170458634951
20
-136.2971768019828
10
-34.641565043646622
20
-161.60141159900854
42
-0.32733339675443102
10
-36.548998945143047
20
-162.99999999999997
10
-67.500000000000128
20
-162.99999999999997
42
0.41421356237309592
10
-70.500000000000156
20
-165.99999999999997
10
-70.500000000000099
20
-188.5
42
-0.41421356237309503
0
ENDSEC
0
SECTION
2
OBJECTS
0
DICTIONARY
5
C
100
AcDbDictionary
3
ACAD_GROUP
350
D
3
ACAD_MLINESTYLE
350
17
0
DICTIONARY
5
D
100
AcDbDictionary
0
DICTIONARY
5
1A
330
C
100
AcDbDictionary
0
DICTIONARY
5
17
100
AcDbDictionary
0
ENDSEC
0
EOF
